<!-- icon666.com - MILLIONS vector ICONS FREE --><svg viewBox="0 0 473 473.904" xmlns="http://www.w3.org/2000/svg"><path d="m252.203125 16.839844 1.402344-15.9375c-5.761719-.503906-11.585938-.796875-17.3125-.902344l-.265625 15.96875c5.351562.121094 10.792968.40625 16.175781.871094zm0 0"></path><path d="m284.148438 22c5.191406 1.230469 10.449218 2.6875 15.617187 4.3125l4.800781-15.265625c-5.539062-1.742187-11.160156-3.285156-16.730468-4.605469zm0 0"></path><path d="m468.421875 196.9375c-1.023437-5.648438-2.273437-11.351562-3.714844-16.953125l-15.496093 4c1.347656 5.222656 2.515624 10.542969 3.464843 15.816406zm0 0"></path><path d="m184.539062 4.71875 3.203126 15.6875c5.222656-1.0625 10.597656-1.941406 16-2.621094l-2.027344-15.882812c-5.796875.738281-11.566406 1.683594-17.175782 2.816406zm0 0"></path><path d="m141.5 35.121094c4.953125-2.199219 10.015625-4.226563 15.039062-6.023438l-5.414062-15.066406c-5.375 1.9375-10.800781 4.105469-16.105469 6.457031zm0 0"></path><path d="m437.453125 143.96875c1.34375 5.222656 2.511719 10.542969 3.464844 15.816406l15.742187-2.847656c-1.023437-5.648438-2.269531-11.351562-3.710937-16.953125zm0 0"></path><path d="m.453125 143.367188c-.101563 14.386718 9.523437 27.027343 23.414063 30.761718 15.480468 14.707032 32.554687 27.640625 50.90625 38.558594-3.226563 17.320312-3.335938 35.078125-.328126 52.441406v.09375c0 .035156.0625.257813.078126.394532.757812 4.660156 1.714843 9.25 2.867187 13.765624l.351563 1.359376c1.132812 4.300781 2.4375 8.515624 3.902343 12.648437.273438.800781.558594 1.539063.839844 2.296875 1.425781 3.800781 2.953125 7.535156 4.648437 11.199219.511719 1.113281 1.054688 2.203125 1.601563 3.296875 1.597656 3.296875 3.308594 6.535156 5.140625 9.695312.800781 1.359375 1.601562 2.6875 2.402344 4 1.785156 2.875 3.617187 5.707032 5.597656 8.457032 1.007812 1.425781 2.082031 2.800781 3.136719 4.191406 1.992187 2.625 4 5.207031 6.167969 7.695312 1.113281 1.289063 2.273437 2.511719 3.425781 3.769532 2.3125 2.519531 4.664062 4.992187 7.136719 7.359374 1.070312 1.023438 2.191406 2 3.292968 2.992188 2.714844 2.464844 5.472656 4.863281 8.355469 7.144531.316406.246094.597656.535157.917969.800781.144531.109376.320312.152344.472656.253907 27.882812 21.65625 62.183594 33.414062 97.488281 33.425781 4.605469 0 9.136719-.3125 13.597657-.6875.234374.011719.472656.011719.707031 0h.117187c2.792969-.25 5.519532-.679688 8.273438-1.074219 2.121094-.304687 4.246094-.589843 6.34375-.976562 2.511718-.460938 4.984375-1.015625 7.457031-1.597657 2.472656-.585937 4.695313-1.152343 7.015625-1.808593s4.449219-1.28125 6.632812-2.007813c2.574219-.847656 5.09375-1.808594 7.621094-2.792968 1.921875-.75 3.867188-1.449219 5.753906-2.261719 2.960938-1.289063 5.847657-2.746094 8.726563-4.21875 3.3125-1.6875 6.539063-3.503907 9.714844-5.414063 1.871093-1.128906 3.78125-2.199218 5.597656-3.417968 2.5625-1.679688 5.007813-3.511719 7.457031-5.335938 1.222656-.902344 2.457032-1.78125 3.648438-2.726562 2.558594-2.015626 5.015625-4.121094 7.4375-6.28125.570312-.503907 1.167968-.953126 1.730468-1.464844.128907-.117188.207032-.277344.328126-.40625 6.957031-6.414063 13.335937-13.433594 19.0625-20.96875 3.328124.878906 6.71875 1.808594 9.921874 2.59375 17.808594 4.875 36.117188 7.699218 54.566407 8.40625 19.871093 0 25.785156-6.136719 28.257812-11.824219 4.269531-9.824219 2.167969-27.605469-62.554687-68.390625.59375-3.457031 1.226562-6.90625 1.601562-10.402344v-.140625c.621094-5.582031.949219-11.1875.984375-16.800781 0-4.800781-.296875-9.519531-.722656-14.257812-.132813-1.503907-.300781-2.992188-.46875-4.480469-.410156-3.40625-.9375-6.789063-1.601563-10.160157-.359374-1.957031-.726562-3.917968-1.160156-5.855468-.800781-3.382813-1.601562-6.75-2.601562-10.078125-.6875-2.34375-1.460938-4.648438-2.253906-6.953125-.609376-1.777344-1.265626-3.535156-1.945313-5.296875-3.289063-8.578125-7.316406-16.855469-12.039063-24.734375-.480468-.800782-.894531-1.601563-1.382812-2.398438-.101562-.140625-.207031-.273437-.320312-.402344-29.144532-46.816406-80.359376-75.304687-135.503907-75.382812-3.871093 0-7.671875.3125-11.480469.582031h-.144531c-3.609375.257813-7.199219.65625-10.703125 1.152344l-1.3125.199219c-36.46875 5.464844-69.921875 23.386718-94.671875 50.722656l-1.34375 1.480469c-2.136719 2.398437-4.214843 4.871093-6.207031 7.40625-.480469.609375-.9375 1.242187-1.410156 1.863281-13.820313-3.738281-27.832032-6.730469-41.976563-8.960938-3.859375-13.628906-16.320312-23.023437-30.488281-22.980468h-.078125c-17.644531 0-31.960937 14.28125-32 31.925781zm193.878906 132.265624c5.273438 4.242188 7.289063 11.359376 5.023438 17.738282s-8.316407 10.628906-15.085938 10.597656h-32c-4.417969 0-8 3.582031-8 8s3.582031 8 8 8c8.835938 0 16 7.164062 16 16s-7.164062 16-16 16h-10.28125c-2.503906-2.023438-4.871093-4.175781-7.199219-6.335938-.800781-.730468-1.601562-1.417968-2.398437-2.160156-2.035156-1.960937-3.953125-4-5.859375-6.082031-1.023438-1.101563-2.046875-2.199219-3.03125-3.335937-1.757812-2.023438-3.429688-4.101563-5.0625-6.214844-.960938-1.238282-1.898438-2.496094-2.824219-3.769532-1.601562-2.214843-3.152343-4.460937-4.617187-6.757812-.71875-1.128906-1.398438-2.28125-2.085938-3.433594-1.554687-2.589844-3.089844-5.199218-4.472656-7.886718-.234375-.441407-.433594-.902344-.65625-1.351563-5.230469-10.375-9.175781-21.34375-11.753906-32.671875h92.242187c.890625.011719 1.78125.101562 2.65625.269531 2.464844 1.128907 4.917969 2.265625 7.40625 3.394531zm-105.121093-19.664062c-1.363282-11.382812-1.246094-22.894531.347656-34.25 18.710937 11.136719 40.085937 22.707031 63.316406 34.25zm159.058593 120c0-8.835938 7.164063-16 16-16h47.390625c-.390625.253906-.800781.480469-1.183594.734375-2.472656 1.601563-4.996093 3.136719-7.558593 4.609375-1.320313.742188-2.65625 1.472656-4 2.183594-3.136719 1.601562-6.320313 3.199218-9.601563 4.617187-1.105468.480469-2.230468.902344-3.351562 1.351563-2.847656 1.152344-5.738282 2.21875-8.671875 3.199218-1.222657.398438-2.398438.800782-3.671875 1.191407-3.199219.96875-6.480469 1.777343-9.777344 2.519531-1.597656.351562-3.128906.695312-4.703125.992188-3.0625.585937-6.175781 1.039062-9.304687 1.425781-1.046876-2.121094-1.582032-4.460938-1.566407-6.824219zm83.328125-32h-67.328125c-17.675781 0-32 14.324219-32 32 .039063 2.6875.429688 5.355469 1.160157 7.941406-.394532 0-.800782.058594-1.160157.058594-24.296875.019531-48.199219-6.152344-69.449219-17.929688 8.996094-3.105468 16.128907-10.070312 19.449219-18.988281 3.320313-8.917969 2.476563-18.851562-2.296875-27.082031h4.296875c17.671875 0 32-14.328125 32-32 0-.945312-.199219-1.839844-.28125-2.769531 41.359375 18.113281 83.773438 33.703125 127.015625 46.6875-3.570312 4.242187-7.378906 8.273437-11.40625 12.082031zm106.152344-14.863281c-4.175781 4.796875-28.175781 3.628906-68.671875-6.601563 7.335937-12.078125 13.03125-25.085937 16.925781-38.671875 43.066406 27.726563 51.945313 42.246094 51.746094 45.273438zm-125.480469-129.136719h-32c-8.835937 0-16-7.164062-16-16s7.164063-16 16-16h76.511719c.078125.136719.167969.261719.238281.390625 1.320313 2.28125 2.546875 4.601563 3.730469 6.945313.527344 1.039062 1.023438 2.09375 1.519531 3.152343 1.792969 3.75 3.390625 7.574219 4.800781 11.453125.574219 1.539063 1.175782 3.058594 1.695313 4.617188.671875 2 1.261719 4 1.847656 6.039062.648438 2.273438 1.230469 4.5625 1.777344 6.875.367187 1.597656.796875 3.160156 1.09375 4.757813.726563 3.710937 1.296875 7.488281 1.726563 11.304687.144531 1.222656.257812 2.449219.371093 3.671875.375 4.222657.648438 8.472657.648438 12.800781 0 2.703126-.257813 5.335938-.410157 8h-63.550781c-8.835937 0-16-7.164062-16-16 0-8.835937 7.164063-16 16-16 4.417969 0 8-3.582031 8-8 0-4.417968-3.582031-8-8-8zm33.726563-48h-65.726563c-17.675781 0-32 14.324219-32 32 0 17.671875 14.324219 32 32 32h4.296875c-5.71875 9.898438-5.71875 22.09375-.003906 31.996094 5.714844 9.898437 16.273438 16 27.707031 16.003906h61.832031c-3.246093 19.328125-10.429687 37.785156-21.105468 54.222656-45.542969-13.324218-90.148438-29.65625-133.527344-48.894531-5.667969-2.46875-11.289062-4.964844-16.855469-7.480469-3.085937-2.136718-6.519531-3.714844-10.152343-4.65625-34.152344-15.589844-67.4375-33.011718-99.710938-52.191406 1.109375-4.417969 2.414062-8.75 3.917969-13h71.601562c11.429688-.003906 21.992188-6.105469 27.707031-16.003906 5.710938-9.902344 5.710938-22.097656-.003906-31.996094h20.296875c11.324219.042969 21.820313-5.921875 27.582031-15.671875 5.761719-9.75 5.917969-21.824219.417969-31.722656 40.175781 3.382812 77.085938 23.480469 101.726563 55.394531zm-241.878906 22.648438c1.039062-2.023438 2.113281-4 3.199218-5.992188.746094-1.296875 1.542969-2.5625 2.328125-3.839844 2.273438-3.671875 4.6875-7.25 7.265625-10.6875.566406-.800781 1.125-1.546875 1.71875-2.296875 1.71875-2.199219 3.480469-4.359375 5.320313-6.457031l.289062-.320312c22.425781-25.390626 53.042969-42.121094 86.527344-47.28125l.863281-.125c2.96875-.433594 5.960938-.800782 8.976563-1.023438 7.644531 2.199219 12.515625 9.683594 11.425781 17.566406-1.089844 7.878906-7.804688 13.765625-15.761719 13.808594h-48c-4.417969 0-8 3.582031-8 8s3.582031 8 8 8c8.835938 0 16 7.164062 16 16s-7.164062 16-16 16h-64.800781c.214844-.449219.425781-.90625.648438-1.351562zm-40.558594-23.945313c9.367187 1.511719 20.0625 3.808594 31.871094 6.800781-.761719 1.253906-1.601563 2.488282-2.289063 3.773438-1.28125 2.257812-2.464844 4.570312-3.640625 6.890625-.847656 1.679687-1.664062 3.375-2.457031 5.085937-1.09375 2.402344-2.175781 4.753906-3.160157 7.203125-.078124.207031-.183593.398438-.261718.605469-.082032.207031-.0625.28125-.113282.417969-1.886718 4.796875-3.546874 9.679687-4.976562 14.648437-11.398438-7.199218-22.351562-15.078125-32.796875-23.59375 9.082031-4.019531 15.710937-12.117187 17.863281-21.816406zm-42.402344-18.574219c2.996094-2.992187 7.058594-4.664062 11.289062-4.65625 8.835938 0 16 7.160156 16 16 0 8.835938-7.164062 16-16 16-6.476562-.011718-12.304687-3.925781-14.769531-9.910156-2.464843-5.988281-1.078125-12.871094 3.511719-17.433594zm0 0"></path><path d="m69.867188 469.945312 15.53125-10.976562c13.761718 2.789062 28.007812 2.066406 41.421874-2.097656.121094 0 .214844-.109375.335938-.152344.121094-.039062.167969 0 .25-.046875l26.078125-10.144531c6.28125-2.4375 10.828125-7.992188 11.972656-14.632813 1.148438-6.640625-1.273437-13.394531-6.371093-17.796875l-21.21875-18.257812c-.078126-.0625-.183594-.105469-.261719-.167969-.082031-.0625-.136719-.152344-.214844-.207031-11.347656-8.277344-24.519531-13.707032-38.402344-15.824219l-10.960937-15.472656c-.84375-1.179688-1.984375-2.109375-3.3125-2.695313l-30.183594-13.289062c-2.851562-1.25-6.167969-.730469-8.5 1.328125-2.335938 2.0625-3.261719 5.289062-2.378906 8.273437l4 13.292969-30.582032-5.207031-2.707031 15.769531 38.488281 6.597656.617188 2.019531-2.398438 13.910157-15.769531-2.695313-2.703125 15.757813 15.765625 2.707031-2.398437 13.910156-1.25 1.703125-38.484375-6.597656-2.707031 15.765625 30.609374 5.25-8.222656 11.199219c-1.789062 2.433593-2.054687 5.660156-.691406 8.351562 1.367188 2.691407 4.128906 4.386719 7.144531 4.382813h.601563l32.886718-2.476563c1.449219-.121093 2.835938-.632812 4.015626-1.480469zm17.203124-26.839843-.121093-.074219-24.441407-10.773438 5.992188-35 26.664062-2.019531h.074219c10.183594 1.375 19.953125 4.921875 28.644531 10.402344l-6.398437 37.199219c-9.992187 2.261718-20.351563 2.351562-30.382813.265625zm62.613282-13.929688c-.167969 1.117188-.929688 2.054688-1.992188 2.449219l-12.917968 5.015625 3.335937-19.457031 10.503906 9.039062c.882813.707032 1.304688 1.839844 1.101563 2.953125zm-73.414063-53.953125 2.542969 3.59375c-3.894531.273438-7.765625.808594-11.589844 1.597656l-3.203125-10.558593zm-27.136719 81.386719 6.527344-8.882813c3.320313 2.023438 6.769532 3.824219 10.328125 5.386719l-3.519531 2.488281zm0 0"></path><path d="m95.691406 428.035156 2.699219-15.761718 15.773437 2.703124-2.703124 15.761719zm0 0"></path><path d="m1.070312 411.832031 2.703126-15.761719 15.769531 2.703126-2.703125 15.761718zm0 0"></path><path d="m414.667969 71.496094 27.441406-16.464844c2.113281-1.265625 3.523437-3.4375 3.824219-5.882812.296875-2.449219-.546875-4.894532-2.289063-6.636719l-33.917969-33.945313c-1.75-1.730468-4.191406-2.570312-6.632812-2.277344-2.445312.300782-4.613281 1.710938-5.882812 3.824219l-16.46875 27.453125-10.59375 10.585938-5.664063-5.664063 5.601563-5.601562c3.121093-3.121094 3.121093-8.1875 0-11.3125l-22.617188-22.664063c-3.125-3.121094-8.1875-3.121094-11.3125 0l-22.597656 22.65625c-3.125 3.125-3.125 8.191406 0 11.3125l22.628906 22.601563c3.125 3.121093 8.1875 3.121093 11.3125 0l5.671875-5.671875 5.65625 5.65625-11.359375 11.335937c-3.121094 3.125-3.121094 8.1875 0 11.3125l5.65625 5.65625-7.710938 7.703125c-3.128906 3.125-3.128906 8.1875-.003906 11.316406 3.121094 3.125 8.1875 3.125 11.316406.003907l7.710938-7.722657 5.65625 5.664063c3.121094 3.125 8.1875 3.125 11.3125 0l11.320312-11.308594 5.652344 5.652344-5.652344 5.664063c-3.125 3.125-3.125 8.191406 0 11.3125l22.621094 22.625c3.125 3.125 8.1875 3.125 11.3125 0l22.632813-22.625c3.121093-3.121094 3.121093-8.1875 0-11.3125l-22.625-22.628907c-3.171875-3.003906-8.136719-3.003906-11.3125 0l-5.65625 5.65625-5.65625-5.65625zm-72.800781-28.984375-11.34375-11.34375 11.34375-11.289063 11.289062 11.289063zm79.203124 56.566406 11.285157 11.289063-11.285157 11.34375-11.34375-11.34375zm-15.417968-71.910156 19.417968 19.417969-14.105468 8.484374-6.894532-6.902343-6.898437-6.894531zm-29.871094 60.632812-11.3125-11.3125 22.632812-22.632812 11.3125 11.3125zm0 0"></path><path d="m368.269531 399.96875h16v16h-16zm0 0"></path><path d="m455.929688 239.621094.6875-15.984375 15.984374.6875-.6875 15.984375zm0 0"></path><path d="m344.269531 423.96875h16v16h-16zm0 0"></path><path d="m392.269531 423.96875h16v16h-16zm0 0"></path><path d="m368.269531 447.96875h16v16h-16zm0 0"></path></svg>